<svg width="32" height="32" viewBox="0 0 32 32" fill="none" xmlns="http://www.w3.org/2000/svg">
<g clip-path="url(#clip0_4515_23312)">
<path d="M21.9983 0C20.2923 0.117999 18.2983 1.20999 17.1364 2.63198C16.0764 3.92198 15.2044 5.83797 15.5444 7.69995C17.4084 7.75795 19.3343 6.63996 20.4503 5.19397C21.4943 3.84798 22.2843 1.94399 21.9983 0Z" fill="white"/>
<path d="M28.7411 10.736C27.1031 8.68204 24.8011 7.49005 22.6271 7.49005C19.7571 7.49005 18.5431 8.86404 16.5492 8.86404C14.4932 8.86404 12.9312 7.49405 10.4492 7.49405C8.0112 7.49405 5.41522 8.98404 3.76923 11.532C1.45524 15.12 1.85124 21.866 5.60122 27.6119C6.94321 29.6679 8.7352 31.9799 11.0792 31.9999C13.1652 32.0199 13.7532 30.6619 16.5792 30.6479C19.4051 30.6319 19.9411 32.0179 22.0231 31.9959C24.3691 31.9779 26.2591 29.4159 27.6011 27.3599C28.5631 25.8859 28.9211 25.144 29.6671 23.48C24.2411 21.414 23.3711 13.698 28.7411 10.736Z" fill="white"/>
</g>
<defs>
<clipPath id="clip0_4515_23312">
<rect width="32" height="32" fill="white"/>
</clipPath>
</defs>
</svg>
