<svg width="32" height="32" viewBox="0 0 32 32" fill="none" xmlns="http://www.w3.org/2000/svg">
<path d="M19.802 9.76833L3.01853 0.123178C2.80763 4.82537e-05 2.5423 0.00688879 2.33821 0.130018C2.12731 0.253148 1.99805 0.472045 1.99805 0.718304C1.99805 0.718304 2.00485 1.60757 2.01165 3.07145L14.237 15.3639L19.802 9.76833Z" fill="url(#paint0_linear_4515_23323)"/>
<path d="M2.01172 3.07147C2.03213 8.35237 2.09336 21.1715 2.12057 27.5538L14.2439 15.3639L2.01172 3.07147Z" fill="url(#paint1_linear_4515_23323)"/>
<path d="M29.4084 15.2887L19.8023 9.76837L14.2305 15.3639L20.5166 21.6846L29.4152 16.4721C29.6262 16.349 29.7554 16.1232 29.7554 15.8838C29.7554 15.6376 29.6193 15.4118 29.4084 15.2887Z" fill="url(#paint2_linear_4515_23323)"/>
<path d="M2.11328 27.5536C2.12689 29.8315 2.13369 31.2886 2.13369 31.2886C2.13369 31.5348 2.26295 31.7606 2.47385 31.8769C2.68475 32 2.94327 32 3.15417 31.8769L20.5227 21.6913L14.2366 15.3707L2.11328 27.5536Z" fill="url(#paint3_linear_4515_23323)"/>
<defs>
<linearGradient id="paint0_linear_4515_23323" x1="1.99805" y1="7.70208" x2="19.8052" y2="7.70208" gradientUnits="userSpaceOnUse">
<stop stop-color="#63BE6B"/>
<stop offset="0.506" stop-color="#5BBC6A"/>
<stop offset="1" stop-color="#4AB96A"/>
</linearGradient>
<linearGradient id="paint1_linear_4515_23323" x1="2.00845" y1="15.3156" x2="14.2368" y2="15.3156" gradientUnits="userSpaceOnUse">
<stop stop-color="#3EC6F2"/>
<stop offset="1" stop-color="#45AFE3"/>
</linearGradient>
<linearGradient id="paint2_linear_4515_23323" x1="14.237" y1="15.7309" x2="29.7538" y2="15.7309" gradientUnits="userSpaceOnUse">
<stop stop-color="#FAA51A"/>
<stop offset="0.387" stop-color="#FAB716"/>
<stop offset="0.741" stop-color="#FAC412"/>
<stop offset="1" stop-color="#FAC80F"/>
</linearGradient>
<linearGradient id="paint3_linear_4515_23323" x1="2.11627" y1="23.6697" x2="20.5225" y2="23.6697" gradientUnits="userSpaceOnUse">
<stop stop-color="#EC3B50"/>
<stop offset="1" stop-color="#E7515B"/>
</linearGradient>
</defs>
</svg>
