<svg width="100" height="22" viewBox="0 0 100 22" fill="none" xmlns="http://www.w3.org/2000/svg">
<path d="M41.9125 5.08695C40.1069 5.08695 38.0533 5.92392 36.7986 7.59968L36.7994 7.59644L36.7986 7.59725L36.7994 5.34998H32.4927V21.0334H36.7986V12.1094C36.7986 10.5033 38.0438 8.79584 40.3497 8.79584C42.1315 8.79584 43.9756 10.0354 43.9756 12.1094V21.0334H48.2822V11.3114C48.2822 7.70412 45.7014 5.08695 41.9125 5.08695V5.08695ZM78.8909 5.35079L74.9976 16.0338L71.1042 5.35079H66.1846L72.6376 21.0292H77.3568L83.8097 5.35079H78.8909ZM19.6358 10.0754C20.3691 9.09059 21.5374 8.51241 22.9483 8.51241C24.5002 8.51241 25.6776 9.39867 26.2863 10.707L18.7622 13.8286C18.5568 12.2266 18.9667 10.9736 19.6358 10.0754V10.0754ZM27.9095 16.2116C26.097 17.553 25.0614 17.873 23.4085 17.873C21.921 17.873 20.7564 17.4112 19.9354 16.6013L30.9455 12.0338C30.705 10.3318 30.059 8.81119 29.065 7.65503C27.6184 5.97503 25.4772 5.08614 22.8701 5.08614C18.1347 5.08614 14.564 8.57948 14.564 13.1936C14.564 17.9274 18.1432 21.3001 23.3448 21.3001C26.2592 21.3001 29.239 19.9189 30.6329 18.3051L27.9095 16.2116ZM14.1535 17.0791H4.36545V0.659668H0V21.0334H14.1535V17.0791ZM91.5428 8.77665C89.1378 8.77665 87.3913 10.5993 87.3913 13.192C87.3913 15.6676 89.2412 17.6074 91.6006 17.6074C94.0065 17.6074 95.7519 15.7346 95.7519 13.192C95.7519 10.7164 93.9028 8.77665 91.5428 8.77665V8.77665ZM91.5428 21.2979C86.8329 21.2979 83.1424 17.789 83.1424 13.192C83.1424 8.64655 86.8584 5.08614 91.6006 5.08614C96.3105 5.08614 100 8.59483 100 13.192C100 17.7365 96.2848 21.2977 91.5428 21.2977V21.2979ZM58.3855 8.77665C55.9804 8.77665 54.235 10.5993 54.235 13.192C54.235 15.6676 56.084 17.6074 58.444 17.6074C60.8491 17.6074 62.5945 15.7346 62.5945 13.192C62.5945 10.7164 60.7455 8.77665 58.3855 8.77665ZM58.3855 21.2979C53.6756 21.2979 49.9861 17.789 49.9861 13.192C49.9861 8.64655 53.701 5.08614 58.444 5.08614C63.1531 5.08614 66.8434 8.59483 66.8434 13.192C66.8434 17.7365 63.1277 21.2977 58.3855 21.2977" fill="#E60012"/>
</svg>
