<svg width="100" height="20" viewBox="0 0 100 20" fill="none" xmlns="http://www.w3.org/2000/svg">
<path d="M15.919 0.150391H0.0489502V4.01039L1.49895 9.75039L6.04895 10.0104L9.90895 6.15039L17.549 4.51039L15.919 0.150391Z" fill="#00C425"/>
<path d="M0.0489502 4.01025V19.8802H3.90895L10.369 19.3402L9.91895 13.8702L0.0489502 4.01025V4.01025Z" fill="#3AF23A"/>
<path d="M3.90637 19.8798H19.7764V16.0198L18.0864 10.8798L13.7664 10.0098L3.90637 19.8798Z" fill="#006446"/>
<path d="M95.6784 7.98053L92.1884 11.1506L95.6784 14.3407V16.1807H95.5684L90.3884 11.4806V15.9507H88.8884V2.43041H90.3884V10.8806L95.5384 6.19049H95.6784V7.98053V7.98053ZM27.9884 15.9507H35.6484V14.4407H29.5484V2.87042H27.9884V15.9507ZM40.9484 6.20049C38.5984 6.20049 36.4584 8.11054 36.4584 11.1906C36.4584 14.1807 38.4184 16.1607 41.2384 16.1607C42.4984 16.1607 43.6584 15.8407 44.7084 15.0807V13.4707C43.6084 14.3907 42.3884 14.7807 41.2884 14.7807C39.5984 14.7807 38.0984 13.7307 37.9584 11.7706H45.0984C45.1184 11.5806 45.1584 11.1606 45.1584 11.0006C45.1584 7.85053 43.2584 6.20049 40.9484 6.20049V6.20049ZM40.9584 7.57053C42.2884 7.57053 43.6384 8.43054 43.6884 10.4606H37.9484C38.0384 8.89055 39.2484 7.57053 40.9584 7.57053ZM66.1484 6.20049C64.8784 6.20049 63.9584 6.87051 63.4084 7.86053C62.9484 6.80051 62.0984 6.20049 60.7384 6.20049C59.5484 6.20049 58.6684 6.89051 58.1884 7.81053H58.1484L57.9684 6.3905H56.7784V15.9407H58.2984V9.91058C58.2984 8.74055 59.0284 7.65053 60.3484 7.65053C61.6384 7.65053 62.2084 8.41054 62.2084 9.79057V15.9507H63.7284V9.81057C63.7284 8.70055 64.4684 7.65053 65.7684 7.65053C67.0784 7.65053 67.6384 8.41054 67.6384 9.79057V15.9507H69.1584V9.58057C69.1684 7.58052 68.2384 6.20049 66.1484 6.20049V6.20049ZM75.3184 6.20049C73.0384 6.20049 70.9084 8.13054 70.9084 11.1906C70.9084 14.2107 73.0284 16.1607 75.3184 16.1607C76.7484 16.1607 78.0984 15.4907 78.8184 14.1607H78.8384L79.0184 15.9507H80.2584V6.4005H79.0184L78.8384 8.19054H78.8184C78.0984 6.88051 76.7484 6.20049 75.3184 6.20049ZM75.5984 7.62053C77.3984 7.62053 78.7684 9.07056 78.7684 11.1806C78.7684 13.2806 77.4084 14.7407 75.5984 14.7407C73.8284 14.7407 72.4284 13.3107 72.4284 11.2006C72.4284 9.05056 73.8284 7.62053 75.5984 7.62053V7.62053ZM86.7384 6.2905C85.9084 6.2905 84.6484 6.68051 83.9984 7.92053H83.9784L83.8184 6.4005H82.5984V15.9507H84.1184V10.4506C84.1184 8.24054 85.9084 7.55052 87.3784 7.85053V6.3405C87.1784 6.3105 86.9884 6.2905 86.7384 6.2905V6.2905ZM54.8284 6.18049H54.7084L50.7184 10.1606L46.7384 6.18049H46.6184V8.11054L49.6884 11.1806L46.6184 14.2307V16.1807H46.7384L50.6984 12.1806L54.7084 16.1807H54.8284V14.2207L51.7284 11.1506L54.8284 8.03053V6.18049V6.18049ZM95.6784 2.64041V2.43041H97.3384V2.64041H96.6384V4.30045H96.3884V2.63042C96.3784 2.64042 95.6784 2.64041 95.6784 2.64041V2.64041ZM98.1784 2.43041L98.8984 4.01045L99.6184 2.43041H99.9584V4.30045H99.7184V2.73042L98.9984 4.30045H98.7884L98.0784 2.73042V4.30045H97.8384V2.42041H98.1784V2.43041Z" fill="#32323C"/>
<path d="M19.782 16.0204V0.150391H15.922L9.922 6.15039L19.782 16.0204Z" fill="#008A44"/>
</svg>
