<svg width="100" height="22" viewBox="0 0 100 22" fill="none" xmlns="http://www.w3.org/2000/svg">
<path d="M100 9.98294V8.22428H97.8161V5.49023L97.7425 5.51287L95.6913 6.14049L95.6508 6.15278V8.22438H92.4132V7.07032C92.4132 6.53295 92.5333 6.12172 92.7702 5.84748C93.0053 5.57652 93.3417 5.43877 93.7707 5.43877C94.0791 5.43877 94.3984 5.51142 94.7198 5.65468L94.8003 5.69067V3.83856L94.7624 3.82463C94.4626 3.71687 94.0549 3.6626 93.5495 3.6626C92.9125 3.6626 92.3337 3.80122 91.8289 4.07595C91.3239 4.35107 90.9266 4.74382 90.6483 5.24317C90.3709 5.74194 90.2302 6.318 90.2302 6.95549V8.22428H88.7095V9.98294H90.2302V17.3919H92.4132V9.98294H95.6508V14.6912C95.6508 16.6303 96.5655 17.6129 98.3693 17.6129C98.6657 17.6129 98.9777 17.5782 99.2962 17.5102C99.6205 17.4403 99.8413 17.3706 99.9713 17.2961L100 17.2791V15.5041L99.9113 15.5629C99.7928 15.6418 99.6452 15.7063 99.4723 15.7543C99.2985 15.8032 99.1534 15.8276 99.041 15.8276C98.6185 15.8276 98.3058 15.7138 98.1119 15.4891C97.9157 15.2623 97.8162 14.8658 97.8162 14.3111V9.98294H100ZM83.8344 15.8279C83.042 15.8279 82.4173 15.5652 81.9771 15.0477C81.5341 14.5275 81.3097 13.7859 81.3097 12.8437C81.3097 11.8716 81.5341 11.1108 81.9773 10.5814C82.4178 10.0556 83.0365 9.7887 83.8166 9.7887C84.5736 9.7887 85.1761 10.0436 85.6078 10.5467C86.0415 11.0525 86.2617 11.8072 86.2617 12.7906C86.2617 13.7861 86.0547 14.5508 85.6465 15.0624C85.241 15.57 84.6314 15.8279 83.8344 15.8279V15.8279ZM83.9314 8.00343C82.4197 8.00343 81.2191 8.44639 80.363 9.32001C79.5074 10.1937 79.0737 11.4028 79.0737 12.914C79.0737 14.3494 79.4971 15.504 80.3323 16.3451C81.1675 17.1865 82.3041 17.6127 83.7104 17.6127C85.1757 17.6127 86.3525 17.1636 87.2082 16.2778C88.0639 15.3931 88.4973 14.1954 88.4973 12.7195C88.4973 11.2617 88.0906 10.0985 87.288 9.26303C86.485 8.42714 85.3555 8.00343 83.9314 8.00343V8.00343ZM75.5539 8.00343C74.5256 8.00343 73.675 8.26646 73.0253 8.78506C72.3715 9.30676 72.0399 9.99097 72.0399 10.8189C72.0399 11.2493 72.1115 11.6316 72.2524 11.9559C72.3941 12.2812 72.6134 12.5676 72.9047 12.808C73.1939 13.0465 73.6402 13.2962 74.2317 13.5504C74.7289 13.755 75.0997 13.928 75.3352 14.0644C75.5655 14.1981 75.7288 14.3325 75.8211 14.4634C75.9108 14.5914 75.9563 14.7667 75.9563 14.983C75.9563 15.5989 75.495 15.8986 74.546 15.8986C74.1939 15.8986 73.7924 15.8251 73.3525 15.6802C72.9158 15.5375 72.5036 15.3285 72.1304 15.0605L72.0397 14.9955V17.0973L72.073 17.1128C72.3819 17.2554 72.7713 17.3756 73.2304 17.4702C73.6885 17.5649 74.1048 17.6131 74.4663 17.6131C75.5822 17.6131 76.4808 17.3488 77.1364 16.8271C77.7963 16.3018 78.1307 15.6015 78.1307 14.7449C78.1307 14.1269 77.9507 13.597 77.5958 13.1696C77.2434 12.7457 76.6318 12.3566 75.7787 12.0126C75.099 11.7398 74.6636 11.5133 74.4839 11.3395C74.3108 11.1715 74.2229 10.934 74.2229 10.6333C74.2229 10.3667 74.3314 10.1531 74.5542 9.98014C74.7787 9.8063 75.0913 9.71788 75.4832 9.71788C75.847 9.71788 76.2191 9.77535 76.5892 9.88795C76.959 10.0005 77.2839 10.1514 77.555 10.3358L77.6442 10.3968V8.40305L77.61 8.38834C77.3598 8.28106 77.0299 8.18926 76.6293 8.11478C76.2304 8.04077 75.8686 8.00343 75.5539 8.00343V8.00343ZM66.3489 15.8279C65.5567 15.8279 64.9318 15.5652 64.4917 15.0477C64.0486 14.5275 63.8246 13.7861 63.8246 12.8437C63.8246 11.8716 64.0489 11.1108 64.4921 10.5814C64.9323 10.0556 65.5509 9.7887 66.3314 9.7887C67.088 9.7887 67.6906 10.0436 68.1223 10.5467C68.5562 11.0525 68.7763 11.8072 68.7763 12.7906C68.7763 13.7861 68.5692 14.5508 68.1609 15.0624C67.7555 15.57 67.1462 15.8279 66.3489 15.8279V15.8279ZM66.4462 8.00343C64.9341 8.00343 63.7333 8.44639 62.8777 9.32001C62.0222 10.1937 61.5881 11.4028 61.5881 12.914C61.5881 14.35 62.0118 15.504 62.8471 16.3451C63.6823 17.1865 64.8188 17.6127 66.2251 17.6127C67.6902 17.6127 68.8673 17.1636 69.723 16.2778C70.5784 15.3931 71.0121 14.1954 71.0121 12.7195C71.0121 11.2617 70.6052 10.0985 69.8024 9.26303C68.9992 8.42714 67.87 8.00343 66.4462 8.00343V8.00343ZM58.2744 9.81191V8.22428H56.1179V17.3917H58.2744V12.7022C58.2744 11.9048 58.4552 11.2497 58.8119 10.7549C59.1641 10.266 59.6335 10.0182 60.2066 10.0182C60.4008 10.0182 60.6189 10.0503 60.855 10.1136C61.0887 10.1766 61.258 10.245 61.3578 10.317L61.4485 10.3827V8.20861L61.4135 8.19362C61.2127 8.10829 60.9286 8.06525 60.5691 8.06525C60.0272 8.06525 59.5423 8.23937 59.1269 8.5822C58.7623 8.88354 58.4988 9.2967 58.2973 9.81191H58.2744ZM52.2562 8.00343C51.2669 8.00343 50.3844 8.21557 49.6339 8.63376C48.8817 9.05292 48.3001 9.65133 47.9043 10.4123C47.5103 11.1713 47.3103 12.058 47.3103 13.0469C47.3103 13.913 47.5042 14.7079 47.8876 15.4085C48.2712 16.1102 48.814 16.6592 49.5012 17.0399C50.1875 17.4202 50.9806 17.613 51.8588 17.613C52.8836 17.613 53.7586 17.4081 54.4601 17.004L54.4884 16.9878V15.0121L54.3978 15.0783C54.08 15.3098 53.7249 15.4946 53.3428 15.6277C52.9617 15.7607 52.6142 15.8279 52.3095 15.8279C51.4633 15.8279 50.784 15.5632 50.291 15.0412C49.7969 14.5185 49.5463 13.7846 49.5463 12.861C49.5463 11.9317 49.8076 11.1789 50.3225 10.6234C50.8359 10.0696 51.5164 9.7887 52.3451 9.7887C53.0538 9.7887 53.7445 10.0287 54.398 10.5027L54.4884 10.5684V8.48673L54.4592 8.47028C54.2133 8.33262 53.8779 8.21896 53.4616 8.13277C53.047 8.04677 52.6415 8.00343 52.2562 8.00343V8.00343ZM45.8251 8.22438H43.6687V17.3917H45.8251V8.22438V8.22438ZM44.7689 4.31905C44.414 4.31905 44.1045 4.43987 43.8501 4.67929C43.5948 4.91939 43.4652 5.22169 43.4652 5.57845C43.4652 5.92961 43.5932 6.22639 43.8462 6.46011C44.0975 6.69314 44.408 6.81126 44.769 6.81126C45.13 6.81126 45.4416 6.69314 45.696 6.46049C45.9519 6.22639 46.0817 5.9297 46.0817 5.57845C46.0817 5.23417 45.9554 4.93497 45.7065 4.68897C45.4578 4.44345 45.1422 4.31905 44.7689 4.31905ZM39.3885 7.548V17.3917H41.5892V4.59968H38.5433L34.6718 14.1012L30.9147 4.59968H27.7448V17.3916H29.8129V7.54703H29.8839L33.8513 17.3917H35.412L39.3175 7.548H39.3885V7.548Z" fill="#706D6E"/>
<path d="M10.1445 10.4697H0V0.325195H10.1445V10.4697Z" fill="#F1511B"/>
<path d="M21.3451 10.4697H11.2008V0.325195H21.3451V10.4697Z" fill="#80CC28"/>
<path d="M10.1442 21.6741H0V11.5298H10.1442V21.6741Z" fill="#00ADEF"/>
<path d="M21.3451 21.6741H11.2008V11.5298H21.3451V21.6741Z" fill="#FBBC09"/>
</svg>
