<svg width="100" height="28" viewBox="0 0 100 28" fill="none" xmlns="http://www.w3.org/2000/svg">
<path d="M13.7503 25.7705C12.246 26.0346 10.7152 26.1138 9.13174 26.3248L4.30186 12.1786V26.9319C2.79756 27.0902 1.4252 27.3013 0 27.5125V0.486816H4.01172L9.50117 15.8209V0.486816H13.7503V25.7705ZM22.0639 10.3839C23.7003 10.3839 26.2075 10.3047 27.7118 10.3047V14.5274C25.8379 14.5274 23.6475 14.5274 22.0639 14.6066V20.888C24.5448 20.7297 27.0257 20.5184 29.5328 20.4392V24.5034L17.841 25.4273V0.486816H29.5328V4.70958H22.0639V10.3839ZM45.2361 4.70968H40.8551V24.1343C39.4299 24.1343 38.0047 24.1343 36.6325 24.187V4.70968H32.2515V0.486816H45.2363L45.2361 4.70968V4.70968ZM52.098 10.0937H57.878V14.3163H52.098V23.8968H47.9542V0.486816H59.7519V4.70958H52.098V10.0937ZM66.6138 20.2018C69.0155 20.2544 71.4435 20.4395 73.7925 20.5712V24.7413C70.0185 24.5036 66.2443 24.2664 62.3911 24.187V0.486816H66.6138V20.2018ZM77.3554 25.0316C78.7014 25.1109 80.1266 25.1901 81.4989 25.3482V0.486816H77.3554V25.0316ZM100 0.486816L94.6423 13.3399L100 27.5125C98.4163 27.3013 96.8328 27.011 95.2492 26.747L92.2143 18.9351L89.1267 26.1138C87.5956 25.8497 86.1177 25.7705 84.5872 25.5593L90.0239 13.1814L85.1148 0.486816H89.6541L92.4253 7.58634L95.3813 0.486816H100Z" fill="#D81F26"/>
</svg>
