<svg width="89" height="21" viewBox="0 0 89 21" fill="none" xmlns="http://www.w3.org/2000/svg">
<path d="M39.8785 0.019043C41.3519 0.0392254 42.8454 0.0392254 44.3187 0.019043C44.2985 1.3309 44.2985 2.66294 44.3187 3.9748C42.8454 3.95462 41.3519 3.9748 39.8584 3.95462C39.8987 2.64276 39.8584 1.3309 39.8785 0.019043V0.019043ZM17.5365 5.67013C20.5639 3.95462 24.9637 4.53991 27.0021 7.50673C28.2534 9.2626 28.6167 11.4827 28.5965 13.5816C25.1252 13.6018 21.6538 13.5816 18.1824 13.6018C18.3438 14.6715 18.808 15.8017 19.797 16.3668C21.2098 17.1943 23.4298 16.9521 24.1362 15.3173C25.5692 15.277 26.9819 15.277 28.4149 15.3173C27.9709 16.9521 26.7801 18.3447 25.2866 19.1116C23.672 19.9997 21.7345 20.1611 19.9383 19.8584C18.0411 19.5556 16.2852 18.486 15.2156 16.8916C14.045 15.1962 13.7422 13.0367 14.0046 11.0387C14.267 8.83877 15.5788 6.75998 17.5365 5.67013V5.67013ZM19.8979 8.19293C18.9089 8.65713 18.4246 9.7268 18.2026 10.7561H24.1362C24.0151 9.96899 23.7326 9.14151 23.1271 8.59658C22.2794 7.7691 20.9272 7.74892 19.8979 8.19293V8.19293ZM64.0773 4.90319C66.4589 4.47936 69.1028 4.98392 70.9394 6.63888C74.0677 9.42406 74.2089 14.8128 71.3027 17.7998C69.0019 20.2015 65.147 20.6455 62.2004 19.2933C59.9197 18.264 58.3657 15.943 58.1033 13.4807C58.0024 12.0478 58.063 10.5745 58.6483 9.24242C59.5363 6.9618 61.6958 5.30684 64.0773 4.90319V4.90319ZM64.5819 8.19293C63.3306 8.63695 62.7453 9.98917 62.5637 11.2203C62.4224 12.7542 62.4426 14.4899 63.4315 15.7613C64.5012 17.1539 66.8625 17.1136 67.9322 15.7412C68.8202 14.6311 68.9615 13.1174 68.8606 11.745C68.8 10.5341 68.3762 9.24242 67.3671 8.49567C66.5598 7.95074 65.4901 7.87001 64.5819 8.19293V8.19293ZM79.9206 5.73067C81.3939 4.58028 83.4929 4.45918 85.1882 5.14538C86.3992 5.67013 87.3074 6.7398 87.7312 7.97093C88.2156 9.24242 88.0743 10.6148 88.0743 11.9469C88.0743 14.4899 88.0541 17.0328 88.0945 19.5556C86.6212 19.5758 85.1478 19.5556 83.6543 19.5758V10.857C83.6543 10.1103 83.3718 9.30297 82.7461 8.83877C81.7976 8.19293 80.4251 8.31403 79.6178 9.12132C78.972 9.76716 78.6895 10.6956 78.7096 11.5836V19.5758C77.2565 19.5556 75.7832 19.5758 74.33 19.5556C74.33 14.7522 74.3502 9.9488 74.33 5.14538C75.763 5.16557 77.1758 5.1252 78.6087 5.16557C78.5885 5.83159 78.5885 6.49761 78.5684 7.16363C79.0124 6.67925 79.3757 6.13432 79.9206 5.73067V5.73067ZM0.0383301 5.18575H4.63994C5.56833 8.27366 6.55727 11.3616 7.42512 14.4697C8.49479 11.4221 9.30209 8.27366 10.3112 5.18575C11.7845 5.16557 13.278 5.18575 14.7514 5.16557C13.056 9.96899 11.4011 14.7724 9.72592 19.5758C8.19205 19.5758 6.65818 19.5556 5.12432 19.596C3.36844 14.8128 1.81439 9.9488 0.0383301 5.18575ZM29.6057 5.16557H33.844C33.8238 5.97286 33.844 6.78016 33.8036 7.58746C34.1669 7.18381 34.4293 6.67925 34.8127 6.29578C35.7613 5.2463 37.3154 4.82246 38.6878 5.18575C38.6676 6.45724 38.6676 7.72874 38.6878 8.98005C37.5979 8.85895 36.387 8.89932 35.4586 9.56534C34.4696 10.2515 34.0256 11.523 34.0458 12.6936C34.0256 14.9944 34.0458 17.275 34.0458 19.5758C32.5725 19.5758 31.079 19.5556 29.6057 19.596C29.6258 14.7724 29.6258 9.96899 29.6057 5.16557V5.16557ZM39.8785 5.18575C41.372 5.16557 42.8454 5.18575 44.3389 5.16557C44.3187 9.96899 44.3389 14.7724 44.3389 19.5758C42.8656 19.5556 41.372 19.5758 39.8785 19.5758V5.18575ZM45.5296 5.16557C49.546 5.18575 53.5623 5.16557 57.5584 5.18575C57.518 6.29578 57.5584 7.38563 57.5382 8.49567C57.3969 8.77822 57.1547 8.98005 56.9731 9.22224C54.9145 11.5029 52.8962 13.844 50.7973 16.1044C53.1586 16.1448 55.52 16.1044 57.8813 16.1246V19.596C53.7641 19.5758 49.6469 19.5758 45.5296 19.596V16.2457C47.6892 13.8238 49.8285 11.4221 52.0082 9.02041C52.0688 8.89932 52.3311 8.77822 52.1899 8.61676C49.9698 8.67731 47.7497 8.61676 45.5296 8.65713V5.16557V5.16557Z" fill="black"/>
</svg>
