<svg width="100" height="24" viewBox="0 0 100 24" fill="none" xmlns="http://www.w3.org/2000/svg">
<path fill-rule="evenodd" clip-rule="evenodd" d="M28.4069 1.5026C29.7818 1.87297 30.8625 2.95354 31.2278 4.32347C31.8925 6.80949 31.8925 11.9998 31.8925 11.9998C31.8925 11.9998 31.8925 17.1901 31.2278 19.6761C30.8574 21.051 29.7769 22.1317 28.4069 22.497C25.9209 23.1617 15.9463 23.1617 15.9463 23.1617C15.9463 23.1617 5.97672 23.1617 3.48558 22.497C2.11067 22.1266 1.02997 21.046 0.664706 19.6761C0 17.1901 0 11.9997 0 11.9997C0 11.9997 0 6.80949 0.664706 4.32347C1.03508 2.94856 2.11578 1.86786 3.48558 1.5026C5.97672 0.837891 15.9463 0.837891 15.9463 0.837891C15.9463 0.837891 25.9209 0.837891 28.4069 1.5026ZM21.0452 11.9998L12.7601 16.7842V7.21545L21.0452 11.9998Z" fill="#FF0000"/>
<path fill-rule="evenodd" clip-rule="evenodd" d="M46.2914 21.1466C45.6623 20.7205 45.2107 20.0609 44.9469 19.163C44.683 18.2649 44.546 17.0726 44.546 15.5809V13.5515C44.546 12.0447 44.6982 10.8373 45.0027 9.92384C45.3071 9.01069 45.7841 8.34612 46.4283 7.92999C47.0727 7.51399 47.92 7.30095 48.9702 7.30095C50.0053 7.30095 50.8323 7.51399 51.4562 7.94022C52.0803 8.36631 52.5369 9.03101 52.8261 9.93407C53.1153 10.8373 53.2575 12.0447 53.2575 13.5464V15.5759C53.2575 17.0675 53.1153 18.2649 52.8362 19.168C52.5572 20.071 52.1007 20.7357 51.4664 21.1517C50.8373 21.5677 49.9798 21.781 48.8991 21.781C47.7931 21.7859 46.9205 21.5728 46.2914 21.1466V21.1466ZM49.8276 18.9549C50.0001 18.4983 50.0915 17.7524 50.0915 16.7226V12.3644C50.0915 11.3597 50.0053 10.6292 49.8276 10.1625C49.6552 9.7007 49.3457 9.46733 48.9042 9.46733C48.4781 9.46733 48.1787 9.7007 48.0012 10.1625C47.8286 10.6241 47.7374 11.3597 47.7374 12.3644V16.7226C47.7374 17.7575 47.8185 18.5034 47.986 18.9549C48.1534 19.4115 48.4578 19.6398 48.8993 19.6398C49.3457 19.6398 49.6501 19.4115 49.8276 18.9549V18.9549ZM94.7287 15.6164V16.3218C94.7287 17.2197 94.7541 17.8894 94.81 18.3409C94.8606 18.7875 94.9723 19.1172 95.1397 19.3203C95.3071 19.5231 95.5658 19.6297 95.9158 19.6297C96.3878 19.6297 96.7124 19.4471 96.885 19.0817C97.0575 18.7164 97.1537 18.1076 97.1691 17.2553L99.8834 17.4126C99.8987 17.5343 99.9037 17.7017 99.9037 17.9147C99.9037 19.2086 99.5485 20.1725 98.8433 20.8118C98.1381 21.451 97.1387 21.7707 95.8449 21.7707C94.2924 21.7707 93.2067 21.2836 92.5826 20.3095C91.9585 19.3354 91.6491 17.8336 91.6491 15.7941V13.3537C91.6491 11.2533 91.9738 9.726 92.618 8.75713C93.2624 7.79312 94.3684 7.31104 95.9363 7.31104C97.0169 7.31104 97.8439 7.50901 98.4222 7.90469C99.0006 8.30036 99.4065 8.9142 99.645 9.75144C99.8784 10.5885 100 11.7454 100 13.2167V15.6115H94.7287V15.6164ZM95.1295 9.73112C94.9721 9.92909 94.8657 10.2537 94.8098 10.7002C94.754 11.1467 94.7287 11.8317 94.7287 12.7397V13.7444H97.0321V12.7397C97.0321 11.8417 97.0017 11.1619 96.9407 10.7002C96.8799 10.2385 96.7683 9.90876 96.611 9.72102C96.4536 9.53328 96.2051 9.43692 95.8702 9.43692C95.5354 9.4318 95.2868 9.53328 95.1295 9.73112ZM38.6303 15.3527L35.0485 2.42015H38.1736L39.4269 8.28017C39.7465 9.72613 39.9799 10.9539 40.1321 11.9737H40.2233C40.3299 11.243 40.5633 10.0203 40.9287 8.30036L42.2274 2.41504H45.3527L41.7303 15.3527V21.5576H38.6303V15.3527ZM63.4197 7.57496V21.5525H60.959L60.685 19.8428H60.6191C59.9494 21.1365 58.9448 21.7809 57.6104 21.7809C56.6821 21.7809 55.9971 21.4765 55.5557 20.8676C55.1143 20.2588 54.8962 19.3101 54.8962 18.0163V7.57496H58.0418V17.8387C58.0418 18.4627 58.1077 18.9093 58.2447 19.1731C58.3817 19.4369 58.61 19.5739 58.9296 19.5739C59.2036 19.5739 59.4674 19.4926 59.716 19.3253C59.9646 19.1579 60.1523 18.9447 60.2741 18.686V7.57483L63.4197 7.57496ZM79.5638 7.57496V21.5525H77.1031L76.8291 19.8428H76.7631C76.0935 21.1365 75.0889 21.7809 73.7545 21.7809C72.8262 21.7809 72.1411 21.4765 71.6998 20.8676C71.2584 20.2588 71.0402 19.3101 71.0402 18.0163V7.57496H74.1859V17.8387C74.1859 18.4627 74.2518 18.9093 74.3888 19.1731C74.5257 19.4369 74.7541 19.5739 75.0737 19.5739C75.3477 19.5739 75.6115 19.4926 75.8601 19.3253C76.1087 19.1579 76.2964 18.9447 76.4182 18.686V7.57483L79.5638 7.57496Z" fill="#282828"/>
<path fill-rule="evenodd" clip-rule="evenodd" d="M71.9738 4.95233H68.8485V21.5529H65.7688V4.95233H62.6436V2.42068H71.9687V4.95233H71.9738ZM89.9798 9.81267C89.7871 8.92994 89.4827 8.29067 89.0565 7.89499C88.6304 7.49918 88.0469 7.30135 87.301 7.30135C86.7228 7.30135 86.1849 7.46365 85.6826 7.79352C85.1803 8.11813 84.7947 8.54947 84.5207 9.08215H84.4954V1.71533H81.4614V21.558H84.059L84.3786 20.2339H84.4447C84.6882 20.7057 85.0534 21.0761 85.5405 21.35C86.0275 21.624 86.5655 21.761 87.159 21.761C88.2245 21.761 89.0057 21.2688 89.5081 20.2896C90.0103 19.3105 90.259 17.7783 90.259 15.693V13.4809C90.2641 11.9182 90.1676 10.6955 89.9798 9.8128V9.81267ZM87.093 15.5154C87.093 16.5352 87.0524 17.3317 86.9662 17.9101C86.885 18.4886 86.743 18.8995 86.5451 19.1431C86.3472 19.3865 86.0834 19.5083 85.7485 19.5083C85.4897 19.5083 85.2514 19.4475 85.0281 19.3257C84.81 19.2039 84.6273 19.0213 84.4903 18.7777V10.8377C84.5969 10.4571 84.7795 10.1476 85.0383 9.90418C85.297 9.66059 85.576 9.53879 85.8804 9.53879C86.2001 9.53879 86.4486 9.66557 86.6212 9.91415C86.7937 10.1629 86.9155 10.5889 86.9864 11.1775C87.0525 11.7711 87.0879 12.6133 87.0879 13.7091V15.5154H87.093Z" fill="#282828"/>
</svg>
